<mxfile host="65bd71144e">
    <diagram id="m0MbzzUF8hINunUaGv-s" name="01">
        <mxGraphModel dx="1618" dy="607" grid="1" gridSize="10" guides="1" tooltips="1" connect="1" arrows="1" fold="1" page="0" pageScale="1" pageWidth="850" pageHeight="1100" math="0" shadow="0">
            <root>
                <mxCell id="0"/>
                <mxCell id="1" parent="0"/>
                <mxCell id="2" value="" style="strokeWidth=1;shadow=0;dashed=0;align=center;html=1;shape=mxgraph.mockup.containers.browserWindow;rSize=0;strokeColor=#666666;strokeColor2=#008cff;strokeColor3=#c4c4c4;mainText=,;recursiveResize=0;fontSize=14;" parent="1" vertex="1">
                    <mxGeometry x="-80" y="270" width="390" height="370" as="geometry"/>
                </mxCell>
                <mxCell id="3" value="Page 1" style="strokeWidth=1;shadow=0;dashed=0;align=center;html=1;shape=mxgraph.mockup.containers.anchor;fontSize=17;fontColor=#666666;align=left;" parent="2" vertex="1">
                    <mxGeometry x="60" y="12" width="110" height="26" as="geometry"/>
                </mxCell>
                <mxCell id="4" value="https://www.ecomm.com" style="strokeWidth=1;shadow=0;dashed=0;align=center;html=1;shape=mxgraph.mockup.containers.anchor;rSize=0;fontSize=17;fontColor=#666666;align=left;" parent="2" vertex="1">
                    <mxGeometry x="130" y="60" width="250" height="26" as="geometry"/>
                </mxCell>
                <mxCell id="5" value="Sign Up" style="rounded=0;whiteSpace=wrap;html=1;shadow=0;fontSize=19;fillColor=#dae8fc;strokeColor=#6c8ebf;" parent="2" vertex="1">
                    <mxGeometry x="250" y="120" width="120" height="30" as="geometry"/>
                </mxCell>
                <mxCell id="6" value="&amp;nbsp; Hat" style="rounded=0;whiteSpace=wrap;html=1;shadow=0;fontSize=19;align=left;fillColor=#ffe6cc;strokeColor=#d79b00;fontStyle=1" parent="2" vertex="1">
                    <mxGeometry x="20" y="170" width="350" height="50" as="geometry"/>
                </mxCell>
                <mxCell id="7" value="&amp;nbsp; Pants" style="rounded=0;whiteSpace=wrap;html=1;shadow=0;fontSize=19;align=left;fillColor=#ffe6cc;strokeColor=#d79b00;fontStyle=1" parent="2" vertex="1">
                    <mxGeometry x="20" y="230" width="350" height="50" as="geometry"/>
                </mxCell>
                <mxCell id="8" value="&amp;nbsp; Shoes" style="rounded=0;whiteSpace=wrap;html=1;shadow=0;fontSize=19;align=left;fillColor=#ffe6cc;strokeColor=#d79b00;fontStyle=1" parent="2" vertex="1">
                    <mxGeometry x="20" y="290" width="350" height="50" as="geometry"/>
                </mxCell>
                <mxCell id="9" value="Buy Now" style="rounded=0;whiteSpace=wrap;html=1;shadow=0;fontSize=19;fillColor=#d5e8d4;strokeColor=#82b366;" parent="2" vertex="1">
                    <mxGeometry x="260" y="175" width="100" height="40" as="geometry"/>
                </mxCell>
                <mxCell id="10" value="Buy Now" style="rounded=0;whiteSpace=wrap;html=1;shadow=0;fontSize=19;fillColor=#d5e8d4;strokeColor=#82b366;" parent="2" vertex="1">
                    <mxGeometry x="260" y="235" width="100" height="40" as="geometry"/>
                </mxCell>
                <mxCell id="11" value="Buy Now" style="rounded=0;whiteSpace=wrap;html=1;shadow=0;fontSize=19;fillColor=#d5e8d4;strokeColor=#82b366;" parent="2" vertex="1">
                    <mxGeometry x="260" y="295" width="100" height="40" as="geometry"/>
                </mxCell>
                <mxCell id="12" value="Basic Ecommerce App" style="text;html=1;strokeColor=none;fillColor=none;align=center;verticalAlign=middle;whiteSpace=wrap;rounded=0;shadow=0;fontSize=28;fontStyle=1" parent="1" vertex="1">
                    <mxGeometry x="-78.75" y="240" width="387.5" height="20" as="geometry"/>
                </mxCell>
                <mxCell id="13" value="&lt;font style=&quot;font-size: 24px&quot;&gt;A very bare bones e-commerce application.&lt;/font&gt;" style="rounded=0;whiteSpace=wrap;html=1;fillColor=#99CCFF;" parent="1" vertex="1">
                    <mxGeometry x="-78.75" y="680" width="388.75" height="60" as="geometry"/>
                </mxCell>
                <mxCell id="TZNExwc2mI-McF0_newL-13" value="&lt;div style=&quot;line-height: 21px&quot;&gt;&lt;div style=&quot;color: rgb(36 , 41 , 47) ; font-family: &amp;#34;fira code&amp;#34; , &amp;#34;menlo&amp;#34; , &amp;#34;monaco&amp;#34; , &amp;#34;courier new&amp;#34; , monospace&quot;&gt;&lt;font style=&quot;font-size: 24px&quot;&gt;Some or parts of these diagrams are designed and created by Stephen Grider.&lt;/font&gt;&lt;/div&gt;&lt;font size=&quot;3&quot; style=&quot;color: rgb(36 , 41 , 47) ; font-family: &amp;#34;fira code&amp;#34; , &amp;#34;menlo&amp;#34; , &amp;#34;monaco&amp;#34; , &amp;#34;courier new&amp;#34; , monospace&quot;&gt;&lt;br&gt;&lt;/font&gt;&lt;div style=&quot;color: rgb(36 , 41 , 47) ; font-family: &amp;#34;fira code&amp;#34; , &amp;#34;menlo&amp;#34; , &amp;#34;monaco&amp;#34; , &amp;#34;courier new&amp;#34; , monospace&quot;&gt;&lt;font size=&quot;3&quot;&gt;&lt;a href=&quot;https://github.com/StephenGrider/microservices-casts&quot;&gt;&lt;br&gt;https://github.com/StephenGrider/microservices-casts&lt;/a&gt;&lt;/font&gt;&lt;/div&gt;&lt;font size=&quot;3&quot; style=&quot;color: rgb(36 , 41 , 47) ; font-family: &amp;#34;fira code&amp;#34; , &amp;#34;menlo&amp;#34; , &amp;#34;monaco&amp;#34; , &amp;#34;courier new&amp;#34; , monospace&quot;&gt;&lt;br&gt;&lt;/font&gt;&lt;div style=&quot;color: rgb(36 , 41 , 47) ; font-family: &amp;#34;fira code&amp;#34; , &amp;#34;menlo&amp;#34; , &amp;#34;monaco&amp;#34; , &amp;#34;courier new&amp;#34; , monospace&quot;&gt;&lt;font size=&quot;3&quot;&gt;An excellent set of diagrams covering micro-services.&lt;/font&gt;&lt;/div&gt;&lt;div style=&quot;color: rgb(36 , 41 , 47) ; font-family: &amp;#34;fira code&amp;#34; , &amp;#34;menlo&amp;#34; , &amp;#34;monaco&amp;#34; , &amp;#34;courier new&amp;#34; , monospace&quot;&gt;&lt;font size=&quot;3&quot;&gt;&lt;br&gt;&lt;/font&gt;&lt;/div&gt;&lt;div style=&quot;color: rgb(36 , 41 , 47) ; font-family: &amp;#34;fira code&amp;#34; , &amp;#34;menlo&amp;#34; , &amp;#34;monaco&amp;#34; , &amp;#34;courier new&amp;#34; , monospace&quot;&gt;&lt;font size=&quot;3&quot;&gt;To view these diagrams, install the DrawIO VSCode extension:&lt;/font&gt;&lt;/div&gt;&lt;div style=&quot;color: rgb(36 , 41 , 47) ; font-family: &amp;#34;fira code&amp;#34; , &amp;#34;menlo&amp;#34; , &amp;#34;monaco&amp;#34; , &amp;#34;courier new&amp;#34; , monospace&quot;&gt;&lt;font size=&quot;3&quot;&gt;&lt;br&gt;&lt;/font&gt;&lt;/div&gt;&lt;div&gt;&lt;font size=&quot;3&quot;&gt;&lt;font color=&quot;#24292f&quot; face=&quot;fira code, menlo, monaco, courier new, monospace&quot;&gt;&lt;a href=&quot;https://marketplace.visualstudio.com/items?itemName=hediet.vscode-drawio&quot;&gt;https://marketplace.visualstudio.com/items?itemName=hediet.vscode-drawio&lt;/a&gt;&lt;/font&gt;&lt;br&gt;&lt;/font&gt;&lt;/div&gt;&lt;/div&gt;" style="rounded=0;whiteSpace=wrap;html=1;fillColor=#E6E6E6;" parent="1" vertex="1">
                    <mxGeometry x="-800" y="270" width="628.75" height="370" as="geometry"/>
                </mxCell>
            </root>
        </mxGraphModel>
    </diagram>
    <diagram id="_fiEw39Zr_uTG_Tvvy4c" name="02">
        <mxGraphModel dx="959" dy="712" grid="1" gridSize="10" guides="1" tooltips="1" connect="1" arrows="1" fold="1" page="0" pageScale="1" pageWidth="850" pageHeight="1100" math="0" shadow="0">
            <root>
                <mxCell id="0bdZcTY2hrPUKLHGCaHR-0"/>
                <mxCell id="0bdZcTY2hrPUKLHGCaHR-1" parent="0bdZcTY2hrPUKLHGCaHR-0"/>
                <mxCell id="0bdZcTY2hrPUKLHGCaHR-2" value="" style="strokeWidth=1;shadow=0;dashed=0;align=center;html=1;shape=mxgraph.mockup.containers.browserWindow;rSize=0;strokeColor=#666666;strokeColor2=#008cff;strokeColor3=#c4c4c4;mainText=,;recursiveResize=0;fontSize=14;" parent="0bdZcTY2hrPUKLHGCaHR-1" vertex="1">
                    <mxGeometry x="270" y="210" width="390" height="370" as="geometry"/>
                </mxCell>
                <mxCell id="0bdZcTY2hrPUKLHGCaHR-3" value="Page 1" style="strokeWidth=1;shadow=0;dashed=0;align=center;html=1;shape=mxgraph.mockup.containers.anchor;fontSize=17;fontColor=#666666;align=left;" parent="0bdZcTY2hrPUKLHGCaHR-2" vertex="1">
                    <mxGeometry x="60" y="12" width="110" height="26" as="geometry"/>
                </mxCell>
                <mxCell id="0bdZcTY2hrPUKLHGCaHR-4" value="https://www.ecomm.com" style="strokeWidth=1;shadow=0;dashed=0;align=center;html=1;shape=mxgraph.mockup.containers.anchor;rSize=0;fontSize=17;fontColor=#666666;align=left;" parent="0bdZcTY2hrPUKLHGCaHR-2" vertex="1">
                    <mxGeometry x="130" y="60" width="250" height="26" as="geometry"/>
                </mxCell>
                <mxCell id="0bdZcTY2hrPUKLHGCaHR-5" value="Sign Up" style="rounded=0;whiteSpace=wrap;html=1;shadow=0;fontSize=19;fillColor=#dae8fc;strokeColor=#6c8ebf;" parent="0bdZcTY2hrPUKLHGCaHR-2" vertex="1">
                    <mxGeometry x="250" y="120" width="120" height="30" as="geometry"/>
                </mxCell>
                <mxCell id="0bdZcTY2hrPUKLHGCaHR-6" value="&amp;nbsp; Hat" style="rounded=0;whiteSpace=wrap;html=1;shadow=0;fontSize=19;align=left;fillColor=#ffe6cc;strokeColor=#d79b00;fontStyle=1" parent="0bdZcTY2hrPUKLHGCaHR-2" vertex="1">
                    <mxGeometry x="20" y="170" width="350" height="50" as="geometry"/>
                </mxCell>
                <mxCell id="0bdZcTY2hrPUKLHGCaHR-7" value="&amp;nbsp; Pants" style="rounded=0;whiteSpace=wrap;html=1;shadow=0;fontSize=19;align=left;fillColor=#ffe6cc;strokeColor=#d79b00;fontStyle=1" parent="0bdZcTY2hrPUKLHGCaHR-2" vertex="1">
                    <mxGeometry x="20" y="230" width="350" height="50" as="geometry"/>
                </mxCell>
                <mxCell id="0bdZcTY2hrPUKLHGCaHR-8" value="&amp;nbsp; Shoes" style="rounded=0;whiteSpace=wrap;html=1;shadow=0;fontSize=19;align=left;fillColor=#ffe6cc;strokeColor=#d79b00;fontStyle=1" parent="0bdZcTY2hrPUKLHGCaHR-2" vertex="1">
                    <mxGeometry x="20" y="290" width="350" height="50" as="geometry"/>
                </mxCell>
                <mxCell id="0bdZcTY2hrPUKLHGCaHR-9" value="Buy Now" style="rounded=0;whiteSpace=wrap;html=1;shadow=0;fontSize=19;fillColor=#d5e8d4;strokeColor=#82b366;" parent="0bdZcTY2hrPUKLHGCaHR-2" vertex="1">
                    <mxGeometry x="260" y="175" width="100" height="40" as="geometry"/>
                </mxCell>
                <mxCell id="0bdZcTY2hrPUKLHGCaHR-10" value="Buy Now" style="rounded=0;whiteSpace=wrap;html=1;shadow=0;fontSize=19;fillColor=#d5e8d4;strokeColor=#82b366;" parent="0bdZcTY2hrPUKLHGCaHR-2" vertex="1">
                    <mxGeometry x="260" y="235" width="100" height="40" as="geometry"/>
                </mxCell>
                <mxCell id="0bdZcTY2hrPUKLHGCaHR-11" value="Buy Now" style="rounded=0;whiteSpace=wrap;html=1;shadow=0;fontSize=19;fillColor=#d5e8d4;strokeColor=#82b366;" parent="0bdZcTY2hrPUKLHGCaHR-2" vertex="1">
                    <mxGeometry x="260" y="295" width="100" height="40" as="geometry"/>
                </mxCell>
                <mxCell id="0bdZcTY2hrPUKLHGCaHR-12" value="Basic Ecommerce App" style="text;html=1;strokeColor=none;fillColor=none;align=center;verticalAlign=middle;whiteSpace=wrap;rounded=0;shadow=0;fontSize=28;fontStyle=1" parent="0bdZcTY2hrPUKLHGCaHR-1" vertex="1">
                    <mxGeometry x="271.25" y="180" width="387.5" height="20" as="geometry"/>
                </mxCell>
                <mxCell id="0bdZcTY2hrPUKLHGCaHR-13" style="edgeStyle=orthogonalEdgeStyle;rounded=0;orthogonalLoop=1;jettySize=auto;html=1;exitX=0;exitY=0.5;exitDx=0;exitDy=0;fontSize=26;" parent="0bdZcTY2hrPUKLHGCaHR-1" source="0bdZcTY2hrPUKLHGCaHR-14" target="0bdZcTY2hrPUKLHGCaHR-5" edge="1">
                    <mxGeometry relative="1" as="geometry"/>
                </mxCell>
                <mxCell id="0bdZcTY2hrPUKLHGCaHR-14" value="Sign Up" style="rounded=0;whiteSpace=wrap;html=1;fontSize=26;fillColor=#f8cecc;strokeColor=#b85450;" parent="0bdZcTY2hrPUKLHGCaHR-1" vertex="1">
                    <mxGeometry x="820" y="310" width="210" height="60" as="geometry"/>
                </mxCell>
                <mxCell id="0bdZcTY2hrPUKLHGCaHR-15" style="edgeStyle=orthogonalEdgeStyle;rounded=0;orthogonalLoop=1;jettySize=auto;html=1;exitX=0;exitY=0.5;exitDx=0;exitDy=0;entryX=1;entryY=0.5;entryDx=0;entryDy=0;fontSize=26;" parent="0bdZcTY2hrPUKLHGCaHR-1" source="0bdZcTY2hrPUKLHGCaHR-16" target="0bdZcTY2hrPUKLHGCaHR-6" edge="1">
                    <mxGeometry relative="1" as="geometry"/>
                </mxCell>
                <mxCell id="0bdZcTY2hrPUKLHGCaHR-16" value="List Products" style="rounded=0;whiteSpace=wrap;html=1;fontSize=26;fillColor=#f8cecc;strokeColor=#b85450;" parent="0bdZcTY2hrPUKLHGCaHR-1" vertex="1">
                    <mxGeometry x="820" y="380" width="210" height="60" as="geometry"/>
                </mxCell>
                <mxCell id="0bdZcTY2hrPUKLHGCaHR-17" style="edgeStyle=orthogonalEdgeStyle;rounded=0;orthogonalLoop=1;jettySize=auto;html=1;exitX=0;exitY=0.5;exitDx=0;exitDy=0;fontSize=26;" parent="0bdZcTY2hrPUKLHGCaHR-1" source="0bdZcTY2hrPUKLHGCaHR-18" target="0bdZcTY2hrPUKLHGCaHR-10" edge="1">
                    <mxGeometry relative="1" as="geometry"/>
                </mxCell>
                <mxCell id="0bdZcTY2hrPUKLHGCaHR-18" value="Buy Products" style="rounded=0;whiteSpace=wrap;html=1;fontSize=26;fillColor=#f8cecc;strokeColor=#b85450;" parent="0bdZcTY2hrPUKLHGCaHR-1" vertex="1">
                    <mxGeometry x="820" y="450" width="210" height="60" as="geometry"/>
                </mxCell>
                <mxCell id="0bdZcTY2hrPUKLHGCaHR-19" value="Stuff this app does" style="text;html=1;strokeColor=none;fillColor=none;align=center;verticalAlign=middle;whiteSpace=wrap;rounded=0;shadow=0;fontSize=28;fontStyle=1" parent="0bdZcTY2hrPUKLHGCaHR-1" vertex="1">
                    <mxGeometry x="845" y="260" width="160" height="20" as="geometry"/>
                </mxCell>
            </root>
        </mxGraphModel>
    </diagram>
    <diagram name="03" id="4Y1NBhKF7xlPdzhWI0-1">
        <mxGraphModel dx="1390" dy="1032" grid="1" gridSize="10" guides="1" tooltips="1" connect="1" arrows="1" fold="1" page="0" pageScale="1" pageWidth="850" pageHeight="1100" math="0" shadow="0">
            <root>
                <mxCell id="UexVM5cgwf-h1JY9j6tU-0"/>
                <mxCell id="UexVM5cgwf-h1JY9j6tU-1" parent="UexVM5cgwf-h1JY9j6tU-0"/>
                <mxCell id="UexVM5cgwf-h1JY9j6tU-20" value="" style="strokeWidth=1;shadow=0;dashed=0;align=center;html=1;shape=mxgraph.mockup.containers.browserWindow;rSize=0;strokeColor=#666666;strokeColor2=#008cff;strokeColor3=#c4c4c4;mainText=,;recursiveResize=0;fontSize=14;" parent="UexVM5cgwf-h1JY9j6tU-1" vertex="1">
                    <mxGeometry x="270" y="210" width="390" height="370" as="geometry"/>
                </mxCell>
                <mxCell id="UexVM5cgwf-h1JY9j6tU-21" value="Page 1" style="strokeWidth=1;shadow=0;dashed=0;align=center;html=1;shape=mxgraph.mockup.containers.anchor;fontSize=17;fontColor=#666666;align=left;" parent="UexVM5cgwf-h1JY9j6tU-20" vertex="1">
                    <mxGeometry x="60" y="12" width="110" height="26" as="geometry"/>
                </mxCell>
                <mxCell id="UexVM5cgwf-h1JY9j6tU-22" value="https://www.ecomm.com" style="strokeWidth=1;shadow=0;dashed=0;align=center;html=1;shape=mxgraph.mockup.containers.anchor;rSize=0;fontSize=17;fontColor=#666666;align=left;" parent="UexVM5cgwf-h1JY9j6tU-20" vertex="1">
                    <mxGeometry x="130" y="60" width="250" height="26" as="geometry"/>
                </mxCell>
                <mxCell id="UexVM5cgwf-h1JY9j6tU-23" value="Sign Up" style="rounded=0;whiteSpace=wrap;html=1;shadow=0;fontSize=19;fillColor=#dae8fc;strokeColor=#6c8ebf;" parent="UexVM5cgwf-h1JY9j6tU-20" vertex="1">
                    <mxGeometry x="250" y="120" width="120" height="30" as="geometry"/>
                </mxCell>
                <mxCell id="UexVM5cgwf-h1JY9j6tU-24" value="&amp;nbsp; Hat" style="rounded=0;whiteSpace=wrap;html=1;shadow=0;fontSize=19;align=left;fillColor=#ffe6cc;strokeColor=#d79b00;fontStyle=1" parent="UexVM5cgwf-h1JY9j6tU-20" vertex="1">
                    <mxGeometry x="20" y="170" width="350" height="50" as="geometry"/>
                </mxCell>
                <mxCell id="UexVM5cgwf-h1JY9j6tU-25" value="&amp;nbsp; Pants" style="rounded=0;whiteSpace=wrap;html=1;shadow=0;fontSize=19;align=left;fillColor=#ffe6cc;strokeColor=#d79b00;fontStyle=1" parent="UexVM5cgwf-h1JY9j6tU-20" vertex="1">
                    <mxGeometry x="20" y="230" width="350" height="50" as="geometry"/>
                </mxCell>
                <mxCell id="UexVM5cgwf-h1JY9j6tU-26" value="&amp;nbsp; Shoes" style="rounded=0;whiteSpace=wrap;html=1;shadow=0;fontSize=19;align=left;fillColor=#ffe6cc;strokeColor=#d79b00;fontStyle=1" parent="UexVM5cgwf-h1JY9j6tU-20" vertex="1">
                    <mxGeometry x="20" y="290" width="350" height="50" as="geometry"/>
                </mxCell>
                <mxCell id="UexVM5cgwf-h1JY9j6tU-27" value="Buy Now" style="rounded=0;whiteSpace=wrap;html=1;shadow=0;fontSize=19;fillColor=#d5e8d4;strokeColor=#82b366;" parent="UexVM5cgwf-h1JY9j6tU-20" vertex="1">
                    <mxGeometry x="260" y="175" width="100" height="40" as="geometry"/>
                </mxCell>
                <mxCell id="UexVM5cgwf-h1JY9j6tU-28" value="Buy Now" style="rounded=0;whiteSpace=wrap;html=1;shadow=0;fontSize=19;fillColor=#d5e8d4;strokeColor=#82b366;" parent="UexVM5cgwf-h1JY9j6tU-20" vertex="1">
                    <mxGeometry x="260" y="235" width="100" height="40" as="geometry"/>
                </mxCell>
                <mxCell id="UexVM5cgwf-h1JY9j6tU-29" value="Buy Now" style="rounded=0;whiteSpace=wrap;html=1;shadow=0;fontSize=19;fillColor=#d5e8d4;strokeColor=#82b366;" parent="UexVM5cgwf-h1JY9j6tU-20" vertex="1">
                    <mxGeometry x="260" y="295" width="100" height="40" as="geometry"/>
                </mxCell>
                <mxCell id="UexVM5cgwf-h1JY9j6tU-30" value="Basic Ecommerce App" style="text;html=1;strokeColor=none;fillColor=none;align=center;verticalAlign=middle;whiteSpace=wrap;rounded=0;shadow=0;fontSize=28;fontStyle=1" parent="UexVM5cgwf-h1JY9j6tU-1" vertex="1">
                    <mxGeometry x="271.25" y="180" width="387.5" height="20" as="geometry"/>
                </mxCell>
                <mxCell id="UexVM5cgwf-h1JY9j6tU-31" value="" style="rounded=0;whiteSpace=wrap;html=1;shadow=1;fontSize=28;fillColor=#f5f5f5;strokeColor=#666666;fontColor=#333333;" parent="UexVM5cgwf-h1JY9j6tU-1" vertex="1">
                    <mxGeometry x="780" y="280" width="300" height="240" as="geometry"/>
                </mxCell>
                <mxCell id="UexVM5cgwf-h1JY9j6tU-32" value="Monolithic Server" style="text;html=1;strokeColor=none;fillColor=none;align=center;verticalAlign=middle;whiteSpace=wrap;rounded=0;shadow=0;fontSize=28;fontStyle=1" parent="UexVM5cgwf-h1JY9j6tU-1" vertex="1">
                    <mxGeometry x="787.5" y="250" width="285" height="20" as="geometry"/>
                </mxCell>
                <mxCell id="UexVM5cgwf-h1JY9j6tU-33" value="Code to sign up a user" style="rounded=0;whiteSpace=wrap;html=1;shadow=1;fontSize=21;fillColor=#dae8fc;strokeColor=#6c8ebf;" parent="UexVM5cgwf-h1JY9j6tU-1" vertex="1">
                    <mxGeometry x="793.75" y="300" width="272.5" height="55" as="geometry"/>
                </mxCell>
                <mxCell id="UexVM5cgwf-h1JY9j6tU-34" value="Code to list available products" style="rounded=0;whiteSpace=wrap;html=1;shadow=1;fontSize=21;fillColor=#ffe6cc;strokeColor=#d79b00;" parent="UexVM5cgwf-h1JY9j6tU-1" vertex="1">
                    <mxGeometry x="793.75" y="370" width="272.5" height="55" as="geometry"/>
                </mxCell>
                <mxCell id="UexVM5cgwf-h1JY9j6tU-35" value="Code to purchase a product" style="rounded=0;whiteSpace=wrap;html=1;shadow=1;fontSize=21;fillColor=#d5e8d4;strokeColor=#82b366;" parent="UexVM5cgwf-h1JY9j6tU-1" vertex="1">
                    <mxGeometry x="793.75" y="440" width="272.5" height="55" as="geometry"/>
                </mxCell>
            </root>
        </mxGraphModel>
    </diagram>
    <diagram name="04" id="OESegF0uyQZFYdyV8oJC">
        <mxGraphModel dx="1790" dy="1032" grid="1" gridSize="10" guides="1" tooltips="1" connect="1" arrows="1" fold="1" page="0" pageScale="1" pageWidth="850" pageHeight="1100" math="0" shadow="0">
            <root>
                <mxCell id="BWU5D065XzsFirRCNFat-0"/>
                <mxCell id="BWU5D065XzsFirRCNFat-1" parent="BWU5D065XzsFirRCNFat-0"/>
                <mxCell id="OnlqlMpWeTDpWHnQJKBm-1" value="" style="rounded=0;whiteSpace=wrap;html=1;fontSize=24;fillColor=#CCCCFF;" parent="BWU5D065XzsFirRCNFat-1" vertex="1">
                    <mxGeometry x="530" y="212.5" width="750" height="480" as="geometry"/>
                </mxCell>
                <mxCell id="OnlqlMpWeTDpWHnQJKBm-0" value="" style="rounded=0;whiteSpace=wrap;html=1;fontSize=24;fillColor=#99CCFF;" parent="BWU5D065XzsFirRCNFat-1" vertex="1">
                    <mxGeometry x="-40" y="210" width="490" height="480" as="geometry"/>
                </mxCell>
                <mxCell id="jMPJmMDisdI8muLcmrkX-0" value="" style="rounded=0;whiteSpace=wrap;html=1;shadow=1;fontSize=28;fillColor=#f5f5f5;strokeColor=#666666;fontColor=#333333;" parent="BWU5D065XzsFirRCNFat-1" vertex="1">
                    <mxGeometry x="940" y="320" width="300" height="240" as="geometry"/>
                </mxCell>
                <mxCell id="jMPJmMDisdI8muLcmrkX-1" value="" style="rounded=0;whiteSpace=wrap;html=1;shadow=1;fontSize=28;fillColor=#f5f5f5;strokeColor=#666666;fontColor=#333333;" parent="BWU5D065XzsFirRCNFat-1" vertex="1">
                    <mxGeometry x="580" y="320" width="300" height="240" as="geometry"/>
                </mxCell>
                <mxCell id="jMPJmMDisdI8muLcmrkX-2" value="Monolithic Server" style="text;html=1;strokeColor=none;fillColor=none;align=center;verticalAlign=middle;whiteSpace=wrap;rounded=0;shadow=0;fontSize=28;fontStyle=1" parent="BWU5D065XzsFirRCNFat-1" vertex="1">
                    <mxGeometry x="587.5" y="290" width="285" height="20" as="geometry"/>
                </mxCell>
                <mxCell id="jMPJmMDisdI8muLcmrkX-3" style="edgeStyle=orthogonalEdgeStyle;rounded=0;orthogonalLoop=1;jettySize=auto;html=1;exitX=1;exitY=0.5;exitDx=0;exitDy=0;fontSize=25;" parent="BWU5D065XzsFirRCNFat-1" source="jMPJmMDisdI8muLcmrkX-4" target="jMPJmMDisdI8muLcmrkX-10" edge="1">
                    <mxGeometry relative="1" as="geometry"/>
                </mxCell>
                <mxCell id="jMPJmMDisdI8muLcmrkX-4" value="Code to sign up a user" style="rounded=0;whiteSpace=wrap;html=1;shadow=1;fontSize=21;fillColor=#dae8fc;strokeColor=#6c8ebf;" parent="BWU5D065XzsFirRCNFat-1" vertex="1">
                    <mxGeometry x="593.75" y="340" width="272.5" height="55" as="geometry"/>
                </mxCell>
                <mxCell id="jMPJmMDisdI8muLcmrkX-5" style="edgeStyle=orthogonalEdgeStyle;rounded=0;orthogonalLoop=1;jettySize=auto;html=1;exitX=1;exitY=0.5;exitDx=0;exitDy=0;fontSize=25;" parent="BWU5D065XzsFirRCNFat-1" source="jMPJmMDisdI8muLcmrkX-6" target="jMPJmMDisdI8muLcmrkX-11" edge="1">
                    <mxGeometry relative="1" as="geometry"/>
                </mxCell>
                <mxCell id="jMPJmMDisdI8muLcmrkX-6" value="Code to list available products" style="rounded=0;whiteSpace=wrap;html=1;shadow=1;fontSize=21;fillColor=#ffe6cc;strokeColor=#d79b00;" parent="BWU5D065XzsFirRCNFat-1" vertex="1">
                    <mxGeometry x="593.75" y="410" width="272.5" height="55" as="geometry"/>
                </mxCell>
                <mxCell id="jMPJmMDisdI8muLcmrkX-7" style="edgeStyle=orthogonalEdgeStyle;rounded=0;orthogonalLoop=1;jettySize=auto;html=1;exitX=1;exitY=0.5;exitDx=0;exitDy=0;fontSize=25;" parent="BWU5D065XzsFirRCNFat-1" source="jMPJmMDisdI8muLcmrkX-8" target="jMPJmMDisdI8muLcmrkX-12" edge="1">
                    <mxGeometry relative="1" as="geometry"/>
                </mxCell>
                <mxCell id="jMPJmMDisdI8muLcmrkX-8" value="Code to purchase a product" style="rounded=0;whiteSpace=wrap;html=1;shadow=1;fontSize=21;fillColor=#d5e8d4;strokeColor=#82b366;" parent="BWU5D065XzsFirRCNFat-1" vertex="1">
                    <mxGeometry x="593.75" y="480" width="272.5" height="55" as="geometry"/>
                </mxCell>
                <mxCell id="jMPJmMDisdI8muLcmrkX-9" value="Database" style="text;html=1;strokeColor=none;fillColor=none;align=center;verticalAlign=middle;whiteSpace=wrap;rounded=0;shadow=0;fontSize=28;fontStyle=1" parent="BWU5D065XzsFirRCNFat-1" vertex="1">
                    <mxGeometry x="947.5" y="290" width="285" height="20" as="geometry"/>
                </mxCell>
                <mxCell id="jMPJmMDisdI8muLcmrkX-10" value="User Collection" style="rounded=0;whiteSpace=wrap;html=1;shadow=1;fontSize=21;" parent="BWU5D065XzsFirRCNFat-1" vertex="1">
                    <mxGeometry x="953.75" y="340" width="272.5" height="55" as="geometry"/>
                </mxCell>
                <mxCell id="jMPJmMDisdI8muLcmrkX-11" value="Products Collection" style="rounded=0;whiteSpace=wrap;html=1;shadow=1;fontSize=21;" parent="BWU5D065XzsFirRCNFat-1" vertex="1">
                    <mxGeometry x="953.75" y="410" width="272.5" height="55" as="geometry"/>
                </mxCell>
                <mxCell id="jMPJmMDisdI8muLcmrkX-12" value="Orders Collection" style="rounded=0;whiteSpace=wrap;html=1;shadow=1;fontSize=21;" parent="BWU5D065XzsFirRCNFat-1" vertex="1">
                    <mxGeometry x="953.75" y="480" width="272.5" height="55" as="geometry"/>
                </mxCell>
                <mxCell id="WJpu5q-mZiWaHoBKg63_-0" value="" style="strokeWidth=1;shadow=0;dashed=0;align=center;html=1;shape=mxgraph.mockup.containers.browserWindow;rSize=0;strokeColor=#666666;strokeColor2=#008cff;strokeColor3=#c4c4c4;mainText=,;recursiveResize=0;fontSize=14;" parent="BWU5D065XzsFirRCNFat-1" vertex="1">
                    <mxGeometry x="10" y="267.5" width="390" height="370" as="geometry"/>
                </mxCell>
                <mxCell id="WJpu5q-mZiWaHoBKg63_-1" value="Page 1" style="strokeWidth=1;shadow=0;dashed=0;align=center;html=1;shape=mxgraph.mockup.containers.anchor;fontSize=17;fontColor=#666666;align=left;" parent="WJpu5q-mZiWaHoBKg63_-0" vertex="1">
                    <mxGeometry x="60" y="12" width="110" height="26" as="geometry"/>
                </mxCell>
                <mxCell id="WJpu5q-mZiWaHoBKg63_-2" value="https://www.ecomm.com" style="strokeWidth=1;shadow=0;dashed=0;align=center;html=1;shape=mxgraph.mockup.containers.anchor;rSize=0;fontSize=17;fontColor=#666666;align=left;" parent="WJpu5q-mZiWaHoBKg63_-0" vertex="1">
                    <mxGeometry x="130" y="60" width="250" height="26" as="geometry"/>
                </mxCell>
                <mxCell id="WJpu5q-mZiWaHoBKg63_-3" value="Sign Up" style="rounded=0;whiteSpace=wrap;html=1;shadow=0;fontSize=19;fillColor=#dae8fc;strokeColor=#6c8ebf;" parent="WJpu5q-mZiWaHoBKg63_-0" vertex="1">
                    <mxGeometry x="250" y="120" width="120" height="30" as="geometry"/>
                </mxCell>
                <mxCell id="WJpu5q-mZiWaHoBKg63_-4" value="&amp;nbsp; Hat" style="rounded=0;whiteSpace=wrap;html=1;shadow=0;fontSize=19;align=left;fillColor=#ffe6cc;strokeColor=#d79b00;fontStyle=1" parent="WJpu5q-mZiWaHoBKg63_-0" vertex="1">
                    <mxGeometry x="20" y="170" width="350" height="50" as="geometry"/>
                </mxCell>
                <mxCell id="WJpu5q-mZiWaHoBKg63_-5" value="&amp;nbsp; Pants" style="rounded=0;whiteSpace=wrap;html=1;shadow=0;fontSize=19;align=left;fillColor=#ffe6cc;strokeColor=#d79b00;fontStyle=1" parent="WJpu5q-mZiWaHoBKg63_-0" vertex="1">
                    <mxGeometry x="20" y="230" width="350" height="50" as="geometry"/>
                </mxCell>
                <mxCell id="WJpu5q-mZiWaHoBKg63_-6" value="&amp;nbsp; Shoes" style="rounded=0;whiteSpace=wrap;html=1;shadow=0;fontSize=19;align=left;fillColor=#ffe6cc;strokeColor=#d79b00;fontStyle=1" parent="WJpu5q-mZiWaHoBKg63_-0" vertex="1">
                    <mxGeometry x="20" y="290" width="350" height="50" as="geometry"/>
                </mxCell>
                <mxCell id="WJpu5q-mZiWaHoBKg63_-7" value="Buy Now" style="rounded=0;whiteSpace=wrap;html=1;shadow=0;fontSize=19;fillColor=#d5e8d4;strokeColor=#82b366;" parent="WJpu5q-mZiWaHoBKg63_-0" vertex="1">
                    <mxGeometry x="260" y="175" width="100" height="40" as="geometry"/>
                </mxCell>
                <mxCell id="WJpu5q-mZiWaHoBKg63_-8" value="Buy Now" style="rounded=0;whiteSpace=wrap;html=1;shadow=0;fontSize=19;fillColor=#d5e8d4;strokeColor=#82b366;" parent="WJpu5q-mZiWaHoBKg63_-0" vertex="1">
                    <mxGeometry x="260" y="235" width="100" height="40" as="geometry"/>
                </mxCell>
                <mxCell id="WJpu5q-mZiWaHoBKg63_-9" value="Buy Now" style="rounded=0;whiteSpace=wrap;html=1;shadow=0;fontSize=19;fillColor=#d5e8d4;strokeColor=#82b366;" parent="WJpu5q-mZiWaHoBKg63_-0" vertex="1">
                    <mxGeometry x="260" y="295" width="100" height="40" as="geometry"/>
                </mxCell>
                <mxCell id="WJpu5q-mZiWaHoBKg63_-10" value="Basic Ecommerce App" style="text;html=1;strokeColor=none;fillColor=none;align=center;verticalAlign=middle;whiteSpace=wrap;rounded=0;shadow=0;fontSize=28;fontStyle=1" parent="BWU5D065XzsFirRCNFat-1" vertex="1">
                    <mxGeometry x="11.25" y="237.5" width="387.5" height="20" as="geometry"/>
                </mxCell>
                <mxCell id="OnlqlMpWeTDpWHnQJKBm-2" value="Front-End" style="text;html=1;strokeColor=none;fillColor=none;align=center;verticalAlign=middle;whiteSpace=wrap;rounded=0;shadow=0;fontSize=28;fontStyle=1" parent="BWU5D065XzsFirRCNFat-1" vertex="1">
                    <mxGeometry x="11.25" y="710" width="387.5" height="20" as="geometry"/>
                </mxCell>
                <mxCell id="OnlqlMpWeTDpWHnQJKBm-3" value="Back-End" style="text;html=1;strokeColor=none;fillColor=none;align=center;verticalAlign=middle;whiteSpace=wrap;rounded=0;shadow=0;fontSize=28;fontStyle=1" parent="BWU5D065XzsFirRCNFat-1" vertex="1">
                    <mxGeometry x="711.25" y="710" width="387.5" height="20" as="geometry"/>
                </mxCell>
            </root>
        </mxGraphModel>
    </diagram>
    <diagram name="05a" id="Jl8u819AI3u3aSGo4oLw">
        <mxGraphModel dx="1724" dy="983" grid="1" gridSize="10" guides="1" tooltips="1" connect="1" arrows="1" fold="1" page="0" pageScale="1" pageWidth="850" pageHeight="1100" math="0" shadow="0">
            <root>
                <mxCell id="mX8KZ8IJ9sWOj9L5_7_W-0"/>
                <mxCell id="mX8KZ8IJ9sWOj9L5_7_W-1" parent="mX8KZ8IJ9sWOj9L5_7_W-0"/>
                <mxCell id="mX8KZ8IJ9sWOj9L5_7_W-2" value="" style="rounded=0;whiteSpace=wrap;html=1;fontSize=24;fillColor=#CCCCFF;" parent="mX8KZ8IJ9sWOj9L5_7_W-1" vertex="1">
                    <mxGeometry x="530" y="212.5" width="750" height="480" as="geometry"/>
                </mxCell>
                <mxCell id="mX8KZ8IJ9sWOj9L5_7_W-3" value="" style="rounded=0;whiteSpace=wrap;html=1;fontSize=24;fillColor=#99CCFF;" parent="mX8KZ8IJ9sWOj9L5_7_W-1" vertex="1">
                    <mxGeometry x="-40" y="210" width="490" height="480" as="geometry"/>
                </mxCell>
                <mxCell id="mX8KZ8IJ9sWOj9L5_7_W-17" value="" style="strokeWidth=1;shadow=0;dashed=0;align=center;html=1;shape=mxgraph.mockup.containers.browserWindow;rSize=0;strokeColor=#666666;strokeColor2=#008cff;strokeColor3=#c4c4c4;mainText=,;recursiveResize=0;fontSize=14;" parent="mX8KZ8IJ9sWOj9L5_7_W-1" vertex="1">
                    <mxGeometry x="10" y="267.5" width="390" height="370" as="geometry"/>
                </mxCell>
                <mxCell id="mX8KZ8IJ9sWOj9L5_7_W-18" value="Page 1" style="strokeWidth=1;shadow=0;dashed=0;align=center;html=1;shape=mxgraph.mockup.containers.anchor;fontSize=17;fontColor=#666666;align=left;" parent="mX8KZ8IJ9sWOj9L5_7_W-17" vertex="1">
                    <mxGeometry x="60" y="12" width="110" height="26" as="geometry"/>
                </mxCell>
                <mxCell id="mX8KZ8IJ9sWOj9L5_7_W-19" value="https://www.ecomm.com" style="strokeWidth=1;shadow=0;dashed=0;align=center;html=1;shape=mxgraph.mockup.containers.anchor;rSize=0;fontSize=17;fontColor=#666666;align=left;" parent="mX8KZ8IJ9sWOj9L5_7_W-17" vertex="1">
                    <mxGeometry x="130" y="60" width="250" height="26" as="geometry"/>
                </mxCell>
                <mxCell id="mX8KZ8IJ9sWOj9L5_7_W-20" value="Sign Up" style="rounded=0;whiteSpace=wrap;html=1;shadow=0;fontSize=19;fillColor=#dae8fc;strokeColor=#6c8ebf;" parent="mX8KZ8IJ9sWOj9L5_7_W-17" vertex="1">
                    <mxGeometry x="250" y="120" width="120" height="30" as="geometry"/>
                </mxCell>
                <mxCell id="mX8KZ8IJ9sWOj9L5_7_W-21" value="&amp;nbsp; Hat" style="rounded=0;whiteSpace=wrap;html=1;shadow=0;fontSize=19;align=left;fillColor=#ffe6cc;strokeColor=#d79b00;fontStyle=1" parent="mX8KZ8IJ9sWOj9L5_7_W-17" vertex="1">
                    <mxGeometry x="20" y="170" width="350" height="50" as="geometry"/>
                </mxCell>
                <mxCell id="mX8KZ8IJ9sWOj9L5_7_W-22" value="&amp;nbsp; Pants" style="rounded=0;whiteSpace=wrap;html=1;shadow=0;fontSize=19;align=left;fillColor=#ffe6cc;strokeColor=#d79b00;fontStyle=1" parent="mX8KZ8IJ9sWOj9L5_7_W-17" vertex="1">
                    <mxGeometry x="20" y="230" width="350" height="50" as="geometry"/>
                </mxCell>
                <mxCell id="mX8KZ8IJ9sWOj9L5_7_W-23" value="&amp;nbsp; Shoes" style="rounded=0;whiteSpace=wrap;html=1;shadow=0;fontSize=19;align=left;fillColor=#ffe6cc;strokeColor=#d79b00;fontStyle=1" parent="mX8KZ8IJ9sWOj9L5_7_W-17" vertex="1">
                    <mxGeometry x="20" y="290" width="350" height="50" as="geometry"/>
                </mxCell>
                <mxCell id="mX8KZ8IJ9sWOj9L5_7_W-24" value="Buy Now" style="rounded=0;whiteSpace=wrap;html=1;shadow=0;fontSize=19;fillColor=#d5e8d4;strokeColor=#82b366;" parent="mX8KZ8IJ9sWOj9L5_7_W-17" vertex="1">
                    <mxGeometry x="260" y="175" width="100" height="40" as="geometry"/>
                </mxCell>
                <mxCell id="mX8KZ8IJ9sWOj9L5_7_W-25" value="Buy Now" style="rounded=0;whiteSpace=wrap;html=1;shadow=0;fontSize=19;fillColor=#d5e8d4;strokeColor=#82b366;" parent="mX8KZ8IJ9sWOj9L5_7_W-17" vertex="1">
                    <mxGeometry x="260" y="235" width="100" height="40" as="geometry"/>
                </mxCell>
                <mxCell id="mX8KZ8IJ9sWOj9L5_7_W-26" value="Buy Now" style="rounded=0;whiteSpace=wrap;html=1;shadow=0;fontSize=19;fillColor=#d5e8d4;strokeColor=#82b366;" parent="mX8KZ8IJ9sWOj9L5_7_W-17" vertex="1">
                    <mxGeometry x="260" y="295" width="100" height="40" as="geometry"/>
                </mxCell>
                <mxCell id="mX8KZ8IJ9sWOj9L5_7_W-27" value="Basic Ecommerce App" style="text;html=1;strokeColor=none;fillColor=none;align=center;verticalAlign=middle;whiteSpace=wrap;rounded=0;shadow=0;fontSize=28;fontStyle=1" parent="mX8KZ8IJ9sWOj9L5_7_W-1" vertex="1">
                    <mxGeometry x="11.25" y="237.5" width="387.5" height="20" as="geometry"/>
                </mxCell>
                <mxCell id="mX8KZ8IJ9sWOj9L5_7_W-28" value="Front-End" style="text;html=1;strokeColor=none;fillColor=none;align=center;verticalAlign=middle;whiteSpace=wrap;rounded=0;shadow=0;fontSize=28;fontStyle=1" parent="mX8KZ8IJ9sWOj9L5_7_W-1" vertex="1">
                    <mxGeometry x="11.25" y="710" width="387.5" height="20" as="geometry"/>
                </mxCell>
                <mxCell id="mX8KZ8IJ9sWOj9L5_7_W-29" value="Back-End" style="text;html=1;strokeColor=none;fillColor=none;align=center;verticalAlign=middle;whiteSpace=wrap;rounded=0;shadow=0;fontSize=28;fontStyle=1" parent="mX8KZ8IJ9sWOj9L5_7_W-1" vertex="1">
                    <mxGeometry x="711.25" y="710" width="387.5" height="20" as="geometry"/>
                </mxCell>
                <mxCell id="mX8KZ8IJ9sWOj9L5_7_W-30" value="" style="rounded=0;whiteSpace=wrap;html=1;shadow=1;fontSize=28;fillColor=#f5f5f5;strokeColor=#666666;fontColor=#333333;" parent="mX8KZ8IJ9sWOj9L5_7_W-1" vertex="1">
                    <mxGeometry x="950" y="320" width="300" height="230" as="geometry"/>
                </mxCell>
                <mxCell id="mX8KZ8IJ9sWOj9L5_7_W-31" value="" style="rounded=0;whiteSpace=wrap;html=1;shadow=1;fontSize=28;fillColor=#f5f5f5;strokeColor=#666666;fontColor=#333333;" parent="mX8KZ8IJ9sWOj9L5_7_W-1" vertex="1">
                    <mxGeometry x="560" y="320" width="330" height="310" as="geometry"/>
                </mxCell>
                <mxCell id="mX8KZ8IJ9sWOj9L5_7_W-32" value="Monolithic Server" style="text;html=1;strokeColor=none;fillColor=none;align=center;verticalAlign=middle;whiteSpace=wrap;rounded=0;shadow=0;fontSize=28;fontStyle=1" parent="mX8KZ8IJ9sWOj9L5_7_W-1" vertex="1">
                    <mxGeometry x="597.5" y="290" width="285" height="20" as="geometry"/>
                </mxCell>
                <mxCell id="mX8KZ8IJ9sWOj9L5_7_W-33" value="Code to sign up a user" style="rounded=0;whiteSpace=wrap;html=1;shadow=1;fontSize=21;fillColor=#dae8fc;strokeColor=#6c8ebf;" parent="mX8KZ8IJ9sWOj9L5_7_W-1" vertex="1">
                    <mxGeometry x="570" y="340" width="306.25" height="55" as="geometry"/>
                </mxCell>
                <mxCell id="mX8KZ8IJ9sWOj9L5_7_W-34" value="Code to list available products" style="rounded=0;whiteSpace=wrap;html=1;shadow=1;fontSize=21;fillColor=#ffe6cc;strokeColor=#d79b00;" parent="mX8KZ8IJ9sWOj9L5_7_W-1" vertex="1">
                    <mxGeometry x="570" y="410" width="306.25" height="55" as="geometry"/>
                </mxCell>
                <mxCell id="mX8KZ8IJ9sWOj9L5_7_W-35" value="Code to purchase a product" style="rounded=0;whiteSpace=wrap;html=1;shadow=1;fontSize=21;fillColor=#d5e8d4;strokeColor=#82b366;" parent="mX8KZ8IJ9sWOj9L5_7_W-1" vertex="1">
                    <mxGeometry x="570" y="480" width="306.25" height="55" as="geometry"/>
                </mxCell>
                <mxCell id="mX8KZ8IJ9sWOj9L5_7_W-36" value="Database" style="text;html=1;strokeColor=none;fillColor=none;align=center;verticalAlign=middle;whiteSpace=wrap;rounded=0;shadow=0;fontSize=28;fontStyle=1" parent="mX8KZ8IJ9sWOj9L5_7_W-1" vertex="1">
                    <mxGeometry x="957.5" y="290" width="285" height="20" as="geometry"/>
                </mxCell>
                <mxCell id="mX8KZ8IJ9sWOj9L5_7_W-37" value="User Collection" style="rounded=0;whiteSpace=wrap;html=1;shadow=1;fontSize=21;" parent="mX8KZ8IJ9sWOj9L5_7_W-1" vertex="1">
                    <mxGeometry x="963.75" y="340" width="272.5" height="55" as="geometry"/>
                </mxCell>
                <mxCell id="mX8KZ8IJ9sWOj9L5_7_W-38" value="Products Collection" style="rounded=0;whiteSpace=wrap;html=1;shadow=1;fontSize=21;" parent="mX8KZ8IJ9sWOj9L5_7_W-1" vertex="1">
                    <mxGeometry x="963.75" y="410" width="272.5" height="55" as="geometry"/>
                </mxCell>
                <mxCell id="mX8KZ8IJ9sWOj9L5_7_W-39" value="Orders Collection" style="rounded=0;whiteSpace=wrap;html=1;shadow=1;fontSize=21;" parent="mX8KZ8IJ9sWOj9L5_7_W-1" vertex="1">
                    <mxGeometry x="963.75" y="480" width="272.5" height="55" as="geometry"/>
                </mxCell>
                <mxCell id="mX8KZ8IJ9sWOj9L5_7_W-43" value="Code to show products&amp;nbsp;ordered by a particular user" style="rounded=0;whiteSpace=wrap;html=1;shadow=1;fontSize=21;fillColor=#f8cecc;strokeColor=#b85450;" parent="mX8KZ8IJ9sWOj9L5_7_W-1" vertex="1">
                    <mxGeometry x="570" y="550" width="306.25" height="55" as="geometry"/>
                </mxCell>
                <mxCell id="JjGHVjjbeTFA2Rnxevk5-0" style="edgeStyle=orthogonalEdgeStyle;html=1;fontSize=24;" parent="mX8KZ8IJ9sWOj9L5_7_W-1" source="T5mw0ewuodRmxG6mpnGx-0" target="mX8KZ8IJ9sWOj9L5_7_W-43" edge="1">
                    <mxGeometry relative="1" as="geometry"/>
                </mxCell>
                <mxCell id="T5mw0ewuodRmxG6mpnGx-0" value="What if we want to extend the back-end with an additional feature?" style="rounded=0;whiteSpace=wrap;html=1;fontSize=24;fillColor=#FFFFFF;" parent="mX8KZ8IJ9sWOj9L5_7_W-1" vertex="1">
                    <mxGeometry x="530" y="760" width="330" height="120" as="geometry"/>
                </mxCell>
            </root>
        </mxGraphModel>
    </diagram>
    <diagram name="05b" id="mY3pTRyg2FJJGnyrozXo">
        <mxGraphModel dx="1790" dy="1032" grid="1" gridSize="10" guides="1" tooltips="1" connect="1" arrows="1" fold="1" page="0" pageScale="1" pageWidth="850" pageHeight="1100" math="0" shadow="0">
            <root>
                <mxCell id="On969ny3q11PolwPhJTZ-0"/>
                <mxCell id="On969ny3q11PolwPhJTZ-1" parent="On969ny3q11PolwPhJTZ-0"/>
                <mxCell id="On969ny3q11PolwPhJTZ-2" value="" style="rounded=0;whiteSpace=wrap;html=1;fontSize=24;fillColor=#CCCCFF;" vertex="1" parent="On969ny3q11PolwPhJTZ-1">
                    <mxGeometry x="530" y="212.5" width="750" height="480" as="geometry"/>
                </mxCell>
                <mxCell id="On969ny3q11PolwPhJTZ-3" value="" style="rounded=0;whiteSpace=wrap;html=1;fontSize=24;fillColor=#99CCFF;" vertex="1" parent="On969ny3q11PolwPhJTZ-1">
                    <mxGeometry x="-40" y="210" width="490" height="480" as="geometry"/>
                </mxCell>
                <mxCell id="On969ny3q11PolwPhJTZ-4" value="" style="rounded=0;whiteSpace=wrap;html=1;shadow=1;fontSize=28;fillColor=#f5f5f5;strokeColor=#666666;fontColor=#333333;" vertex="1" parent="On969ny3q11PolwPhJTZ-1">
                    <mxGeometry x="940" y="320" width="300" height="240" as="geometry"/>
                </mxCell>
                <mxCell id="On969ny3q11PolwPhJTZ-5" value="" style="rounded=0;whiteSpace=wrap;html=1;shadow=1;fontSize=28;fillColor=#f5f5f5;strokeColor=#666666;fontColor=#333333;" vertex="1" parent="On969ny3q11PolwPhJTZ-1">
                    <mxGeometry x="580" y="320" width="300" height="240" as="geometry"/>
                </mxCell>
                <mxCell id="On969ny3q11PolwPhJTZ-6" value="Monolithic Server" style="text;html=1;strokeColor=none;fillColor=none;align=center;verticalAlign=middle;whiteSpace=wrap;rounded=0;shadow=0;fontSize=28;fontStyle=1" vertex="1" parent="On969ny3q11PolwPhJTZ-1">
                    <mxGeometry x="587.5" y="290" width="285" height="20" as="geometry"/>
                </mxCell>
                <mxCell id="On969ny3q11PolwPhJTZ-7" style="edgeStyle=orthogonalEdgeStyle;rounded=0;orthogonalLoop=1;jettySize=auto;html=1;exitX=1;exitY=0.5;exitDx=0;exitDy=0;fontSize=25;" edge="1" parent="On969ny3q11PolwPhJTZ-1" source="On969ny3q11PolwPhJTZ-8" target="On969ny3q11PolwPhJTZ-14">
                    <mxGeometry relative="1" as="geometry"/>
                </mxCell>
                <mxCell id="On969ny3q11PolwPhJTZ-8" value="Code to sign up a user" style="rounded=0;whiteSpace=wrap;html=1;shadow=1;fontSize=21;fillColor=#dae8fc;strokeColor=#6c8ebf;" vertex="1" parent="On969ny3q11PolwPhJTZ-1">
                    <mxGeometry x="593.75" y="340" width="272.5" height="55" as="geometry"/>
                </mxCell>
                <mxCell id="On969ny3q11PolwPhJTZ-9" style="edgeStyle=orthogonalEdgeStyle;rounded=0;orthogonalLoop=1;jettySize=auto;html=1;exitX=1;exitY=0.5;exitDx=0;exitDy=0;fontSize=25;" edge="1" parent="On969ny3q11PolwPhJTZ-1" source="On969ny3q11PolwPhJTZ-10" target="On969ny3q11PolwPhJTZ-15">
                    <mxGeometry relative="1" as="geometry"/>
                </mxCell>
                <mxCell id="On969ny3q11PolwPhJTZ-10" value="Code to list available products" style="rounded=0;whiteSpace=wrap;html=1;shadow=1;fontSize=21;fillColor=#ffe6cc;strokeColor=#d79b00;" vertex="1" parent="On969ny3q11PolwPhJTZ-1">
                    <mxGeometry x="593.75" y="410" width="272.5" height="55" as="geometry"/>
                </mxCell>
                <mxCell id="On969ny3q11PolwPhJTZ-11" style="edgeStyle=orthogonalEdgeStyle;rounded=0;orthogonalLoop=1;jettySize=auto;html=1;exitX=1;exitY=0.5;exitDx=0;exitDy=0;fontSize=25;" edge="1" parent="On969ny3q11PolwPhJTZ-1" source="On969ny3q11PolwPhJTZ-12" target="On969ny3q11PolwPhJTZ-16">
                    <mxGeometry relative="1" as="geometry"/>
                </mxCell>
                <mxCell id="On969ny3q11PolwPhJTZ-12" value="Code to purchase a product" style="rounded=0;whiteSpace=wrap;html=1;shadow=1;fontSize=21;fillColor=#d5e8d4;strokeColor=#82b366;" vertex="1" parent="On969ny3q11PolwPhJTZ-1">
                    <mxGeometry x="593.75" y="480" width="272.5" height="55" as="geometry"/>
                </mxCell>
                <mxCell id="On969ny3q11PolwPhJTZ-13" value="Database" style="text;html=1;strokeColor=none;fillColor=none;align=center;verticalAlign=middle;whiteSpace=wrap;rounded=0;shadow=0;fontSize=28;fontStyle=1" vertex="1" parent="On969ny3q11PolwPhJTZ-1">
                    <mxGeometry x="947.5" y="290" width="285" height="20" as="geometry"/>
                </mxCell>
                <mxCell id="On969ny3q11PolwPhJTZ-14" value="User Collection" style="rounded=0;whiteSpace=wrap;html=1;shadow=1;fontSize=21;" vertex="1" parent="On969ny3q11PolwPhJTZ-1">
                    <mxGeometry x="953.75" y="340" width="272.5" height="55" as="geometry"/>
                </mxCell>
                <mxCell id="On969ny3q11PolwPhJTZ-15" value="Products Collection" style="rounded=0;whiteSpace=wrap;html=1;shadow=1;fontSize=21;" vertex="1" parent="On969ny3q11PolwPhJTZ-1">
                    <mxGeometry x="953.75" y="410" width="272.5" height="55" as="geometry"/>
                </mxCell>
                <mxCell id="On969ny3q11PolwPhJTZ-16" value="Orders Collection" style="rounded=0;whiteSpace=wrap;html=1;shadow=1;fontSize=21;" vertex="1" parent="On969ny3q11PolwPhJTZ-1">
                    <mxGeometry x="953.75" y="480" width="272.5" height="55" as="geometry"/>
                </mxCell>
                <mxCell id="On969ny3q11PolwPhJTZ-17" value="" style="strokeWidth=1;shadow=0;dashed=0;align=center;html=1;shape=mxgraph.mockup.containers.browserWindow;rSize=0;strokeColor=#666666;strokeColor2=#008cff;strokeColor3=#c4c4c4;mainText=,;recursiveResize=0;fontSize=14;" vertex="1" parent="On969ny3q11PolwPhJTZ-1">
                    <mxGeometry x="10" y="267.5" width="390" height="370" as="geometry"/>
                </mxCell>
                <mxCell id="On969ny3q11PolwPhJTZ-18" value="Page 1" style="strokeWidth=1;shadow=0;dashed=0;align=center;html=1;shape=mxgraph.mockup.containers.anchor;fontSize=17;fontColor=#666666;align=left;" vertex="1" parent="On969ny3q11PolwPhJTZ-17">
                    <mxGeometry x="60" y="12" width="110" height="26" as="geometry"/>
                </mxCell>
                <mxCell id="On969ny3q11PolwPhJTZ-19" value="https://www.ecomm.com" style="strokeWidth=1;shadow=0;dashed=0;align=center;html=1;shape=mxgraph.mockup.containers.anchor;rSize=0;fontSize=17;fontColor=#666666;align=left;" vertex="1" parent="On969ny3q11PolwPhJTZ-17">
                    <mxGeometry x="130" y="60" width="250" height="26" as="geometry"/>
                </mxCell>
                <mxCell id="On969ny3q11PolwPhJTZ-20" value="Sign Up" style="rounded=0;whiteSpace=wrap;html=1;shadow=0;fontSize=19;fillColor=#dae8fc;strokeColor=#6c8ebf;" vertex="1" parent="On969ny3q11PolwPhJTZ-17">
                    <mxGeometry x="250" y="120" width="120" height="30" as="geometry"/>
                </mxCell>
                <mxCell id="On969ny3q11PolwPhJTZ-21" value="&amp;nbsp; Hat" style="rounded=0;whiteSpace=wrap;html=1;shadow=0;fontSize=19;align=left;fillColor=#ffe6cc;strokeColor=#d79b00;fontStyle=1" vertex="1" parent="On969ny3q11PolwPhJTZ-17">
                    <mxGeometry x="20" y="170" width="350" height="50" as="geometry"/>
                </mxCell>
                <mxCell id="On969ny3q11PolwPhJTZ-22" value="&amp;nbsp; Pants" style="rounded=0;whiteSpace=wrap;html=1;shadow=0;fontSize=19;align=left;fillColor=#ffe6cc;strokeColor=#d79b00;fontStyle=1" vertex="1" parent="On969ny3q11PolwPhJTZ-17">
                    <mxGeometry x="20" y="230" width="350" height="50" as="geometry"/>
                </mxCell>
                <mxCell id="On969ny3q11PolwPhJTZ-23" value="&amp;nbsp; Shoes" style="rounded=0;whiteSpace=wrap;html=1;shadow=0;fontSize=19;align=left;fillColor=#ffe6cc;strokeColor=#d79b00;fontStyle=1" vertex="1" parent="On969ny3q11PolwPhJTZ-17">
                    <mxGeometry x="20" y="290" width="350" height="50" as="geometry"/>
                </mxCell>
                <mxCell id="On969ny3q11PolwPhJTZ-24" value="Buy Now" style="rounded=0;whiteSpace=wrap;html=1;shadow=0;fontSize=19;fillColor=#d5e8d4;strokeColor=#82b366;" vertex="1" parent="On969ny3q11PolwPhJTZ-17">
                    <mxGeometry x="260" y="175" width="100" height="40" as="geometry"/>
                </mxCell>
                <mxCell id="On969ny3q11PolwPhJTZ-25" value="Buy Now" style="rounded=0;whiteSpace=wrap;html=1;shadow=0;fontSize=19;fillColor=#d5e8d4;strokeColor=#82b366;" vertex="1" parent="On969ny3q11PolwPhJTZ-17">
                    <mxGeometry x="260" y="235" width="100" height="40" as="geometry"/>
                </mxCell>
                <mxCell id="On969ny3q11PolwPhJTZ-26" value="Buy Now" style="rounded=0;whiteSpace=wrap;html=1;shadow=0;fontSize=19;fillColor=#d5e8d4;strokeColor=#82b366;" vertex="1" parent="On969ny3q11PolwPhJTZ-17">
                    <mxGeometry x="260" y="295" width="100" height="40" as="geometry"/>
                </mxCell>
                <mxCell id="On969ny3q11PolwPhJTZ-27" value="Basic Ecommerce App" style="text;html=1;strokeColor=none;fillColor=none;align=center;verticalAlign=middle;whiteSpace=wrap;rounded=0;shadow=0;fontSize=28;fontStyle=1" vertex="1" parent="On969ny3q11PolwPhJTZ-1">
                    <mxGeometry x="11.25" y="237.5" width="387.5" height="20" as="geometry"/>
                </mxCell>
                <mxCell id="On969ny3q11PolwPhJTZ-28" value="Front-End" style="text;html=1;strokeColor=none;fillColor=none;align=center;verticalAlign=middle;whiteSpace=wrap;rounded=0;shadow=0;fontSize=28;fontStyle=1" vertex="1" parent="On969ny3q11PolwPhJTZ-1">
                    <mxGeometry x="11.25" y="710" width="387.5" height="20" as="geometry"/>
                </mxCell>
                <mxCell id="On969ny3q11PolwPhJTZ-29" value="Back-End" style="text;html=1;strokeColor=none;fillColor=none;align=center;verticalAlign=middle;whiteSpace=wrap;rounded=0;shadow=0;fontSize=28;fontStyle=1" vertex="1" parent="On969ny3q11PolwPhJTZ-1">
                    <mxGeometry x="711.25" y="710" width="387.5" height="20" as="geometry"/>
                </mxCell>
                <mxCell id="94pRfpUZQX1l5J9a3JYc-0" value="So, how do we split this monolithic server into 3 separate micro-services?" style="rounded=0;whiteSpace=wrap;html=1;fontSize=24;fillColor=#FFFFFF;" vertex="1" parent="On969ny3q11PolwPhJTZ-1">
                    <mxGeometry x="530" y="750" width="750" height="120" as="geometry"/>
                </mxCell>
            </root>
        </mxGraphModel>
    </diagram>
    <diagram name="06" id="Wsq5raN3RNBW5RDc8wcf">
        <mxGraphModel dx="1790" dy="1032" grid="1" gridSize="10" guides="1" tooltips="1" connect="1" arrows="1" fold="1" page="0" pageScale="1" pageWidth="850" pageHeight="1100" math="0" shadow="0">
            <root>
                <mxCell id="Di1SkNPZL3bNfLpKAxyT-0"/>
                <mxCell id="Di1SkNPZL3bNfLpKAxyT-1" parent="Di1SkNPZL3bNfLpKAxyT-0"/>
                <mxCell id="Di1SkNPZL3bNfLpKAxyT-2" value="" style="rounded=0;whiteSpace=wrap;html=1;fontSize=24;fillColor=#CCCCFF;" parent="Di1SkNPZL3bNfLpKAxyT-1" vertex="1">
                    <mxGeometry x="530" y="212.5" width="750" height="480" as="geometry"/>
                </mxCell>
                <mxCell id="Di1SkNPZL3bNfLpKAxyT-3" value="" style="rounded=0;whiteSpace=wrap;html=1;fontSize=24;fillColor=#99CCFF;" parent="Di1SkNPZL3bNfLpKAxyT-1" vertex="1">
                    <mxGeometry x="-40" y="210" width="490" height="480" as="geometry"/>
                </mxCell>
                <mxCell id="Di1SkNPZL3bNfLpKAxyT-4" value="" style="strokeWidth=1;shadow=0;dashed=0;align=center;html=1;shape=mxgraph.mockup.containers.browserWindow;rSize=0;strokeColor=#666666;strokeColor2=#008cff;strokeColor3=#c4c4c4;mainText=,;recursiveResize=0;fontSize=14;" parent="Di1SkNPZL3bNfLpKAxyT-1" vertex="1">
                    <mxGeometry x="10" y="267.5" width="390" height="370" as="geometry"/>
                </mxCell>
                <mxCell id="Di1SkNPZL3bNfLpKAxyT-5" value="Page 1" style="strokeWidth=1;shadow=0;dashed=0;align=center;html=1;shape=mxgraph.mockup.containers.anchor;fontSize=17;fontColor=#666666;align=left;" parent="Di1SkNPZL3bNfLpKAxyT-4" vertex="1">
                    <mxGeometry x="60" y="12" width="110" height="26" as="geometry"/>
                </mxCell>
                <mxCell id="Di1SkNPZL3bNfLpKAxyT-6" value="https://www.ecomm.com" style="strokeWidth=1;shadow=0;dashed=0;align=center;html=1;shape=mxgraph.mockup.containers.anchor;rSize=0;fontSize=17;fontColor=#666666;align=left;" parent="Di1SkNPZL3bNfLpKAxyT-4" vertex="1">
                    <mxGeometry x="130" y="60" width="250" height="26" as="geometry"/>
                </mxCell>
                <mxCell id="Di1SkNPZL3bNfLpKAxyT-7" value="Sign Up" style="rounded=0;whiteSpace=wrap;html=1;shadow=0;fontSize=19;fillColor=#dae8fc;strokeColor=#6c8ebf;" parent="Di1SkNPZL3bNfLpKAxyT-4" vertex="1">
                    <mxGeometry x="250" y="120" width="120" height="30" as="geometry"/>
                </mxCell>
                <mxCell id="Di1SkNPZL3bNfLpKAxyT-8" value="&amp;nbsp; Hat" style="rounded=0;whiteSpace=wrap;html=1;shadow=0;fontSize=19;align=left;fillColor=#ffe6cc;strokeColor=#d79b00;fontStyle=1" parent="Di1SkNPZL3bNfLpKAxyT-4" vertex="1">
                    <mxGeometry x="20" y="170" width="350" height="50" as="geometry"/>
                </mxCell>
                <mxCell id="Di1SkNPZL3bNfLpKAxyT-9" value="&amp;nbsp; Pants" style="rounded=0;whiteSpace=wrap;html=1;shadow=0;fontSize=19;align=left;fillColor=#ffe6cc;strokeColor=#d79b00;fontStyle=1" parent="Di1SkNPZL3bNfLpKAxyT-4" vertex="1">
                    <mxGeometry x="20" y="230" width="350" height="50" as="geometry"/>
                </mxCell>
                <mxCell id="Di1SkNPZL3bNfLpKAxyT-10" value="&amp;nbsp; Shoes" style="rounded=0;whiteSpace=wrap;html=1;shadow=0;fontSize=19;align=left;fillColor=#ffe6cc;strokeColor=#d79b00;fontStyle=1" parent="Di1SkNPZL3bNfLpKAxyT-4" vertex="1">
                    <mxGeometry x="20" y="290" width="350" height="50" as="geometry"/>
                </mxCell>
                <mxCell id="Di1SkNPZL3bNfLpKAxyT-11" value="Buy Now" style="rounded=0;whiteSpace=wrap;html=1;shadow=0;fontSize=19;fillColor=#d5e8d4;strokeColor=#82b366;" parent="Di1SkNPZL3bNfLpKAxyT-4" vertex="1">
                    <mxGeometry x="260" y="175" width="100" height="40" as="geometry"/>
                </mxCell>
                <mxCell id="Di1SkNPZL3bNfLpKAxyT-12" value="Buy Now" style="rounded=0;whiteSpace=wrap;html=1;shadow=0;fontSize=19;fillColor=#d5e8d4;strokeColor=#82b366;" parent="Di1SkNPZL3bNfLpKAxyT-4" vertex="1">
                    <mxGeometry x="260" y="235" width="100" height="40" as="geometry"/>
                </mxCell>
                <mxCell id="Di1SkNPZL3bNfLpKAxyT-13" value="Buy Now" style="rounded=0;whiteSpace=wrap;html=1;shadow=0;fontSize=19;fillColor=#d5e8d4;strokeColor=#82b366;" parent="Di1SkNPZL3bNfLpKAxyT-4" vertex="1">
                    <mxGeometry x="260" y="295" width="100" height="40" as="geometry"/>
                </mxCell>
                <mxCell id="Di1SkNPZL3bNfLpKAxyT-14" value="Basic Ecommerce App" style="text;html=1;strokeColor=none;fillColor=none;align=center;verticalAlign=middle;whiteSpace=wrap;rounded=0;shadow=0;fontSize=28;fontStyle=1" parent="Di1SkNPZL3bNfLpKAxyT-1" vertex="1">
                    <mxGeometry x="11.25" y="237.5" width="387.5" height="20" as="geometry"/>
                </mxCell>
                <mxCell id="Di1SkNPZL3bNfLpKAxyT-15" value="Front-End" style="text;html=1;strokeColor=none;fillColor=none;align=center;verticalAlign=middle;whiteSpace=wrap;rounded=0;shadow=0;fontSize=28;fontStyle=1" parent="Di1SkNPZL3bNfLpKAxyT-1" vertex="1">
                    <mxGeometry x="11.25" y="710" width="387.5" height="20" as="geometry"/>
                </mxCell>
                <mxCell id="Di1SkNPZL3bNfLpKAxyT-16" value="Back-End" style="text;html=1;strokeColor=none;fillColor=none;align=center;verticalAlign=middle;whiteSpace=wrap;rounded=0;shadow=0;fontSize=28;fontStyle=1" parent="Di1SkNPZL3bNfLpKAxyT-1" vertex="1">
                    <mxGeometry x="711.25" y="710" width="387.5" height="20" as="geometry"/>
                </mxCell>
                <mxCell id="oTH6hW1cpWJA38IbI3Yb-0" value="Service B" style="rounded=0;whiteSpace=wrap;html=1;shadow=1;fontSize=20;fillColor=#f5f5f5;strokeColor=#666666;fontColor=#333333;fontStyle=1" parent="Di1SkNPZL3bNfLpKAxyT-1" vertex="1">
                    <mxGeometry x="545" y="338" width="330" height="30" as="geometry"/>
                </mxCell>
                <mxCell id="oTH6hW1cpWJA38IbI3Yb-1" value="Service C" style="rounded=0;whiteSpace=wrap;html=1;shadow=1;fontSize=20;fillColor=#f5f5f5;strokeColor=#666666;fontColor=#333333;fontStyle=1" parent="Di1SkNPZL3bNfLpKAxyT-1" vertex="1">
                    <mxGeometry x="545" y="459" width="330" height="30" as="geometry"/>
                </mxCell>
                <mxCell id="oTH6hW1cpWJA38IbI3Yb-2" value="Service A" style="rounded=0;whiteSpace=wrap;html=1;shadow=1;fontSize=20;fillColor=#f5f5f5;strokeColor=#666666;fontColor=#333333;fontStyle=1" parent="Di1SkNPZL3bNfLpKAxyT-1" vertex="1">
                    <mxGeometry x="545" y="218" width="330" height="30" as="geometry"/>
                </mxCell>
                <mxCell id="oTH6hW1cpWJA38IbI3Yb-3" style="edgeStyle=orthogonalEdgeStyle;rounded=0;orthogonalLoop=1;jettySize=auto;html=1;exitX=1;exitY=0.5;exitDx=0;exitDy=0;fontSize=20;" parent="Di1SkNPZL3bNfLpKAxyT-1" source="oTH6hW1cpWJA38IbI3Yb-4" target="oTH6hW1cpWJA38IbI3Yb-13" edge="1">
                    <mxGeometry relative="1" as="geometry"/>
                </mxCell>
                <mxCell id="oTH6hW1cpWJA38IbI3Yb-4" value="" style="rounded=0;whiteSpace=wrap;html=1;shadow=1;fontSize=28;fillColor=#f5f5f5;strokeColor=#666666;fontColor=#333333;" parent="Di1SkNPZL3bNfLpKAxyT-1" vertex="1">
                    <mxGeometry x="545" y="248" width="330" height="80" as="geometry"/>
                </mxCell>
                <mxCell id="oTH6hW1cpWJA38IbI3Yb-5" value="Code to sign up a user" style="rounded=0;whiteSpace=wrap;html=1;shadow=1;fontSize=21;fillColor=#dae8fc;strokeColor=#6c8ebf;" parent="Di1SkNPZL3bNfLpKAxyT-1" vertex="1">
                    <mxGeometry x="555" y="258" width="306.25" height="55" as="geometry"/>
                </mxCell>
                <mxCell id="oTH6hW1cpWJA38IbI3Yb-6" style="edgeStyle=orthogonalEdgeStyle;rounded=0;orthogonalLoop=1;jettySize=auto;html=1;exitX=1;exitY=0.5;exitDx=0;exitDy=0;fontSize=20;" parent="Di1SkNPZL3bNfLpKAxyT-1" source="oTH6hW1cpWJA38IbI3Yb-7" target="oTH6hW1cpWJA38IbI3Yb-16" edge="1">
                    <mxGeometry relative="1" as="geometry"/>
                </mxCell>
                <mxCell id="oTH6hW1cpWJA38IbI3Yb-7" value="" style="rounded=0;whiteSpace=wrap;html=1;shadow=1;fontSize=28;fillColor=#f5f5f5;strokeColor=#666666;fontColor=#333333;" parent="Di1SkNPZL3bNfLpKAxyT-1" vertex="1">
                    <mxGeometry x="545" y="368" width="330" height="80" as="geometry"/>
                </mxCell>
                <mxCell id="oTH6hW1cpWJA38IbI3Yb-8" style="edgeStyle=orthogonalEdgeStyle;rounded=0;orthogonalLoop=1;jettySize=auto;html=1;exitX=1;exitY=0.5;exitDx=0;exitDy=0;entryX=0;entryY=0.5;entryDx=0;entryDy=0;fontSize=20;" parent="Di1SkNPZL3bNfLpKAxyT-1" source="oTH6hW1cpWJA38IbI3Yb-9" target="oTH6hW1cpWJA38IbI3Yb-19" edge="1">
                    <mxGeometry relative="1" as="geometry"/>
                </mxCell>
                <mxCell id="oTH6hW1cpWJA38IbI3Yb-9" value="" style="rounded=0;whiteSpace=wrap;html=1;shadow=1;fontSize=28;fillColor=#f5f5f5;strokeColor=#666666;fontColor=#333333;" parent="Di1SkNPZL3bNfLpKAxyT-1" vertex="1">
                    <mxGeometry x="545" y="489" width="330" height="80" as="geometry"/>
                </mxCell>
                <mxCell id="oTH6hW1cpWJA38IbI3Yb-10" value="Code to list available products" style="rounded=0;whiteSpace=wrap;html=1;shadow=1;fontSize=21;fillColor=#ffe6cc;strokeColor=#d79b00;" parent="Di1SkNPZL3bNfLpKAxyT-1" vertex="1">
                    <mxGeometry x="554.38" y="376" width="306.25" height="55" as="geometry"/>
                </mxCell>
                <mxCell id="oTH6hW1cpWJA38IbI3Yb-11" value="Code to purchase a product" style="rounded=0;whiteSpace=wrap;html=1;shadow=1;fontSize=21;fillColor=#d5e8d4;strokeColor=#82b366;" parent="Di1SkNPZL3bNfLpKAxyT-1" vertex="1">
                    <mxGeometry x="555.64" y="501.5" width="306.25" height="55" as="geometry"/>
                </mxCell>
                <mxCell id="oTH6hW1cpWJA38IbI3Yb-12" value="DB For Service A" style="rounded=0;whiteSpace=wrap;html=1;shadow=1;fontSize=20;fillColor=#f5f5f5;strokeColor=#666666;fontColor=#333333;fontStyle=1" parent="Di1SkNPZL3bNfLpKAxyT-1" vertex="1">
                    <mxGeometry x="935" y="218" width="330" height="30" as="geometry"/>
                </mxCell>
                <mxCell id="oTH6hW1cpWJA38IbI3Yb-13" value="" style="rounded=0;whiteSpace=wrap;html=1;shadow=1;fontSize=28;fillColor=#f5f5f5;strokeColor=#666666;fontColor=#333333;" parent="Di1SkNPZL3bNfLpKAxyT-1" vertex="1">
                    <mxGeometry x="935" y="248" width="330" height="80" as="geometry"/>
                </mxCell>
                <mxCell id="oTH6hW1cpWJA38IbI3Yb-14" value="User Collection" style="rounded=0;whiteSpace=wrap;html=1;shadow=1;fontSize=21;" parent="Di1SkNPZL3bNfLpKAxyT-1" vertex="1">
                    <mxGeometry x="969" y="260.5" width="272.5" height="55" as="geometry"/>
                </mxCell>
                <mxCell id="oTH6hW1cpWJA38IbI3Yb-15" value="DB For Service B" style="rounded=0;whiteSpace=wrap;html=1;shadow=1;fontSize=20;fillColor=#f5f5f5;strokeColor=#666666;fontColor=#333333;fontStyle=1" parent="Di1SkNPZL3bNfLpKAxyT-1" vertex="1">
                    <mxGeometry x="935" y="338" width="330" height="30" as="geometry"/>
                </mxCell>
                <mxCell id="oTH6hW1cpWJA38IbI3Yb-16" value="" style="rounded=0;whiteSpace=wrap;html=1;shadow=1;fontSize=28;fillColor=#f5f5f5;strokeColor=#666666;fontColor=#333333;" parent="Di1SkNPZL3bNfLpKAxyT-1" vertex="1">
                    <mxGeometry x="935" y="368" width="330" height="80" as="geometry"/>
                </mxCell>
                <mxCell id="oTH6hW1cpWJA38IbI3Yb-17" value="Products Collection" style="rounded=0;whiteSpace=wrap;html=1;shadow=1;fontSize=21;" parent="Di1SkNPZL3bNfLpKAxyT-1" vertex="1">
                    <mxGeometry x="963.75" y="380.5" width="272.5" height="55" as="geometry"/>
                </mxCell>
                <mxCell id="oTH6hW1cpWJA38IbI3Yb-18" value="DB For Service C" style="rounded=0;whiteSpace=wrap;html=1;shadow=1;fontSize=20;fillColor=#f5f5f5;strokeColor=#666666;fontColor=#333333;fontStyle=1" parent="Di1SkNPZL3bNfLpKAxyT-1" vertex="1">
                    <mxGeometry x="935" y="459" width="330" height="30" as="geometry"/>
                </mxCell>
                <mxCell id="oTH6hW1cpWJA38IbI3Yb-19" value="" style="rounded=0;whiteSpace=wrap;html=1;shadow=1;fontSize=28;fillColor=#f5f5f5;strokeColor=#666666;fontColor=#333333;" parent="Di1SkNPZL3bNfLpKAxyT-1" vertex="1">
                    <mxGeometry x="935" y="489" width="330" height="80" as="geometry"/>
                </mxCell>
                <mxCell id="oTH6hW1cpWJA38IbI3Yb-20" value="Orders Collection" style="rounded=0;whiteSpace=wrap;html=1;shadow=1;fontSize=21;" parent="Di1SkNPZL3bNfLpKAxyT-1" vertex="1">
                    <mxGeometry x="963.75" y="501.5" width="272.5" height="55" as="geometry"/>
                </mxCell>
            </root>
        </mxGraphModel>
    </diagram>
    <diagram name="07" id="XlMiPuumbjmzd_nbgu40">
        <mxGraphModel dx="1790" dy="1032" grid="1" gridSize="10" guides="1" tooltips="1" connect="1" arrows="1" fold="1" page="0" pageScale="1" pageWidth="850" pageHeight="1100" math="0" shadow="0">
            <root>
                <mxCell id="BaTGkpD-FC1v86nu7FEj-0"/>
                <mxCell id="BaTGkpD-FC1v86nu7FEj-1" parent="BaTGkpD-FC1v86nu7FEj-0"/>
                <mxCell id="BaTGkpD-FC1v86nu7FEj-2" value="" style="rounded=0;whiteSpace=wrap;html=1;fontSize=24;fillColor=#CCCCFF;" parent="BaTGkpD-FC1v86nu7FEj-1" vertex="1">
                    <mxGeometry x="530" y="212.5" width="750" height="480" as="geometry"/>
                </mxCell>
                <mxCell id="BaTGkpD-FC1v86nu7FEj-3" value="" style="rounded=0;whiteSpace=wrap;html=1;fontSize=24;fillColor=#99CCFF;" parent="BaTGkpD-FC1v86nu7FEj-1" vertex="1">
                    <mxGeometry x="-40" y="210" width="490" height="480" as="geometry"/>
                </mxCell>
                <mxCell id="BaTGkpD-FC1v86nu7FEj-4" value="" style="strokeWidth=1;shadow=0;dashed=0;align=center;html=1;shape=mxgraph.mockup.containers.browserWindow;rSize=0;strokeColor=#666666;strokeColor2=#008cff;strokeColor3=#c4c4c4;mainText=,;recursiveResize=0;fontSize=14;" parent="BaTGkpD-FC1v86nu7FEj-1" vertex="1">
                    <mxGeometry x="10" y="267.5" width="390" height="370" as="geometry"/>
                </mxCell>
                <mxCell id="BaTGkpD-FC1v86nu7FEj-5" value="Page 1" style="strokeWidth=1;shadow=0;dashed=0;align=center;html=1;shape=mxgraph.mockup.containers.anchor;fontSize=17;fontColor=#666666;align=left;" parent="BaTGkpD-FC1v86nu7FEj-4" vertex="1">
                    <mxGeometry x="60" y="12" width="110" height="26" as="geometry"/>
                </mxCell>
                <mxCell id="BaTGkpD-FC1v86nu7FEj-6" value="https://www.ecomm.com" style="strokeWidth=1;shadow=0;dashed=0;align=center;html=1;shape=mxgraph.mockup.containers.anchor;rSize=0;fontSize=17;fontColor=#666666;align=left;" parent="BaTGkpD-FC1v86nu7FEj-4" vertex="1">
                    <mxGeometry x="130" y="60" width="250" height="26" as="geometry"/>
                </mxCell>
                <mxCell id="BaTGkpD-FC1v86nu7FEj-7" value="Sign Up" style="rounded=0;whiteSpace=wrap;html=1;shadow=0;fontSize=19;fillColor=#dae8fc;strokeColor=#6c8ebf;" parent="BaTGkpD-FC1v86nu7FEj-4" vertex="1">
                    <mxGeometry x="250" y="120" width="120" height="30" as="geometry"/>
                </mxCell>
                <mxCell id="BaTGkpD-FC1v86nu7FEj-8" value="&amp;nbsp; Hat" style="rounded=0;whiteSpace=wrap;html=1;shadow=0;fontSize=19;align=left;fillColor=#ffe6cc;strokeColor=#d79b00;fontStyle=1" parent="BaTGkpD-FC1v86nu7FEj-4" vertex="1">
                    <mxGeometry x="20" y="170" width="350" height="50" as="geometry"/>
                </mxCell>
                <mxCell id="BaTGkpD-FC1v86nu7FEj-9" value="&amp;nbsp; Pants" style="rounded=0;whiteSpace=wrap;html=1;shadow=0;fontSize=19;align=left;fillColor=#ffe6cc;strokeColor=#d79b00;fontStyle=1" parent="BaTGkpD-FC1v86nu7FEj-4" vertex="1">
                    <mxGeometry x="20" y="230" width="350" height="50" as="geometry"/>
                </mxCell>
                <mxCell id="BaTGkpD-FC1v86nu7FEj-10" value="&amp;nbsp; Shoes" style="rounded=0;whiteSpace=wrap;html=1;shadow=0;fontSize=19;align=left;fillColor=#ffe6cc;strokeColor=#d79b00;fontStyle=1" parent="BaTGkpD-FC1v86nu7FEj-4" vertex="1">
                    <mxGeometry x="20" y="290" width="350" height="50" as="geometry"/>
                </mxCell>
                <mxCell id="BaTGkpD-FC1v86nu7FEj-11" value="Buy Now" style="rounded=0;whiteSpace=wrap;html=1;shadow=0;fontSize=19;fillColor=#d5e8d4;strokeColor=#82b366;" parent="BaTGkpD-FC1v86nu7FEj-4" vertex="1">
                    <mxGeometry x="260" y="175" width="100" height="40" as="geometry"/>
                </mxCell>
                <mxCell id="BaTGkpD-FC1v86nu7FEj-12" value="Buy Now" style="rounded=0;whiteSpace=wrap;html=1;shadow=0;fontSize=19;fillColor=#d5e8d4;strokeColor=#82b366;" parent="BaTGkpD-FC1v86nu7FEj-4" vertex="1">
                    <mxGeometry x="260" y="235" width="100" height="40" as="geometry"/>
                </mxCell>
                <mxCell id="BaTGkpD-FC1v86nu7FEj-13" value="Buy Now" style="rounded=0;whiteSpace=wrap;html=1;shadow=0;fontSize=19;fillColor=#d5e8d4;strokeColor=#82b366;" parent="BaTGkpD-FC1v86nu7FEj-4" vertex="1">
                    <mxGeometry x="260" y="295" width="100" height="40" as="geometry"/>
                </mxCell>
                <mxCell id="BaTGkpD-FC1v86nu7FEj-14" value="Basic Ecommerce App" style="text;html=1;strokeColor=none;fillColor=none;align=center;verticalAlign=middle;whiteSpace=wrap;rounded=0;shadow=0;fontSize=28;fontStyle=1" parent="BaTGkpD-FC1v86nu7FEj-1" vertex="1">
                    <mxGeometry x="11.25" y="237.5" width="387.5" height="20" as="geometry"/>
                </mxCell>
                <mxCell id="BaTGkpD-FC1v86nu7FEj-15" value="Front-End" style="text;html=1;strokeColor=none;fillColor=none;align=center;verticalAlign=middle;whiteSpace=wrap;rounded=0;shadow=0;fontSize=28;fontStyle=1" parent="BaTGkpD-FC1v86nu7FEj-1" vertex="1">
                    <mxGeometry x="11.25" y="710" width="387.5" height="20" as="geometry"/>
                </mxCell>
                <mxCell id="BaTGkpD-FC1v86nu7FEj-16" value="Back-End" style="text;html=1;strokeColor=none;fillColor=none;align=center;verticalAlign=middle;whiteSpace=wrap;rounded=0;shadow=0;fontSize=28;fontStyle=1" parent="BaTGkpD-FC1v86nu7FEj-1" vertex="1">
                    <mxGeometry x="711.25" y="710" width="387.5" height="20" as="geometry"/>
                </mxCell>
                <mxCell id="BaTGkpD-FC1v86nu7FEj-17" value="Service B" style="rounded=0;whiteSpace=wrap;html=1;shadow=1;fontSize=20;fillColor=#f5f5f5;strokeColor=#666666;fontColor=#333333;fontStyle=1" parent="BaTGkpD-FC1v86nu7FEj-1" vertex="1">
                    <mxGeometry x="545" y="338" width="330" height="30" as="geometry"/>
                </mxCell>
                <mxCell id="BaTGkpD-FC1v86nu7FEj-18" value="Service C" style="rounded=0;whiteSpace=wrap;html=1;shadow=1;fontSize=20;fillColor=#f5f5f5;strokeColor=#666666;fontColor=#333333;fontStyle=1" parent="BaTGkpD-FC1v86nu7FEj-1" vertex="1">
                    <mxGeometry x="545" y="459" width="330" height="30" as="geometry"/>
                </mxCell>
                <mxCell id="BaTGkpD-FC1v86nu7FEj-19" value="Service A" style="rounded=0;whiteSpace=wrap;html=1;shadow=1;fontSize=20;fillColor=#f5f5f5;strokeColor=#666666;fontColor=#333333;fontStyle=1" parent="BaTGkpD-FC1v86nu7FEj-1" vertex="1">
                    <mxGeometry x="545" y="218" width="330" height="30" as="geometry"/>
                </mxCell>
                <mxCell id="BaTGkpD-FC1v86nu7FEj-20" style="edgeStyle=orthogonalEdgeStyle;rounded=0;orthogonalLoop=1;jettySize=auto;html=1;exitX=1;exitY=0.5;exitDx=0;exitDy=0;fontSize=20;" parent="BaTGkpD-FC1v86nu7FEj-1" source="BaTGkpD-FC1v86nu7FEj-21" target="BaTGkpD-FC1v86nu7FEj-30" edge="1">
                    <mxGeometry relative="1" as="geometry"/>
                </mxCell>
                <mxCell id="BaTGkpD-FC1v86nu7FEj-21" value="" style="rounded=0;whiteSpace=wrap;html=1;shadow=1;fontSize=28;fillColor=#f5f5f5;strokeColor=#666666;fontColor=#333333;" parent="BaTGkpD-FC1v86nu7FEj-1" vertex="1">
                    <mxGeometry x="545" y="248" width="330" height="80" as="geometry"/>
                </mxCell>
                <mxCell id="BaTGkpD-FC1v86nu7FEj-22" value="Code to sign up a user" style="rounded=0;whiteSpace=wrap;html=1;shadow=1;fontSize=21;fillColor=#dae8fc;strokeColor=#6c8ebf;" parent="BaTGkpD-FC1v86nu7FEj-1" vertex="1">
                    <mxGeometry x="555" y="258" width="306.25" height="55" as="geometry"/>
                </mxCell>
                <mxCell id="BaTGkpD-FC1v86nu7FEj-23" style="edgeStyle=orthogonalEdgeStyle;rounded=0;orthogonalLoop=1;jettySize=auto;html=1;exitX=1;exitY=0.5;exitDx=0;exitDy=0;fontSize=20;" parent="BaTGkpD-FC1v86nu7FEj-1" source="BaTGkpD-FC1v86nu7FEj-24" target="BaTGkpD-FC1v86nu7FEj-33" edge="1">
                    <mxGeometry relative="1" as="geometry"/>
                </mxCell>
                <mxCell id="BaTGkpD-FC1v86nu7FEj-24" value="" style="rounded=0;whiteSpace=wrap;html=1;shadow=1;fontSize=28;fillColor=#f5f5f5;strokeColor=#666666;fontColor=#333333;" parent="BaTGkpD-FC1v86nu7FEj-1" vertex="1">
                    <mxGeometry x="545" y="368" width="330" height="80" as="geometry"/>
                </mxCell>
                <mxCell id="BaTGkpD-FC1v86nu7FEj-25" style="edgeStyle=orthogonalEdgeStyle;rounded=0;orthogonalLoop=1;jettySize=auto;html=1;exitX=1;exitY=0.5;exitDx=0;exitDy=0;entryX=0;entryY=0.5;entryDx=0;entryDy=0;fontSize=20;" parent="BaTGkpD-FC1v86nu7FEj-1" source="BaTGkpD-FC1v86nu7FEj-26" target="BaTGkpD-FC1v86nu7FEj-36" edge="1">
                    <mxGeometry relative="1" as="geometry"/>
                </mxCell>
                <mxCell id="BaTGkpD-FC1v86nu7FEj-26" value="" style="rounded=0;whiteSpace=wrap;html=1;shadow=1;fontSize=28;fillColor=#f5f5f5;strokeColor=#666666;fontColor=#333333;" parent="BaTGkpD-FC1v86nu7FEj-1" vertex="1">
                    <mxGeometry x="545" y="489" width="330" height="80" as="geometry"/>
                </mxCell>
                <mxCell id="BaTGkpD-FC1v86nu7FEj-27" value="Code to list available products" style="rounded=0;whiteSpace=wrap;html=1;shadow=1;fontSize=21;fillColor=#ffe6cc;strokeColor=#d79b00;" parent="BaTGkpD-FC1v86nu7FEj-1" vertex="1">
                    <mxGeometry x="554.38" y="376" width="306.25" height="55" as="geometry"/>
                </mxCell>
                <mxCell id="BaTGkpD-FC1v86nu7FEj-28" value="Code to purchase a product" style="rounded=0;whiteSpace=wrap;html=1;shadow=1;fontSize=21;fillColor=#d5e8d4;strokeColor=#82b366;" parent="BaTGkpD-FC1v86nu7FEj-1" vertex="1">
                    <mxGeometry x="555.64" y="501.5" width="306.25" height="55" as="geometry"/>
                </mxCell>
                <mxCell id="BaTGkpD-FC1v86nu7FEj-29" value="DB For Service A" style="rounded=0;whiteSpace=wrap;html=1;shadow=1;fontSize=20;fillColor=#f5f5f5;strokeColor=#666666;fontColor=#333333;fontStyle=1" parent="BaTGkpD-FC1v86nu7FEj-1" vertex="1">
                    <mxGeometry x="935" y="218" width="330" height="30" as="geometry"/>
                </mxCell>
                <mxCell id="BaTGkpD-FC1v86nu7FEj-30" value="" style="rounded=0;whiteSpace=wrap;html=1;shadow=1;fontSize=28;fillColor=#f5f5f5;strokeColor=#666666;fontColor=#333333;" parent="BaTGkpD-FC1v86nu7FEj-1" vertex="1">
                    <mxGeometry x="935" y="248" width="330" height="80" as="geometry"/>
                </mxCell>
                <mxCell id="BaTGkpD-FC1v86nu7FEj-31" value="User Collection" style="rounded=0;whiteSpace=wrap;html=1;shadow=1;fontSize=21;" parent="BaTGkpD-FC1v86nu7FEj-1" vertex="1">
                    <mxGeometry x="969" y="260.5" width="272.5" height="55" as="geometry"/>
                </mxCell>
                <mxCell id="BaTGkpD-FC1v86nu7FEj-32" value="DB For Service B" style="rounded=0;whiteSpace=wrap;html=1;shadow=1;fontSize=20;fillColor=#f5f5f5;strokeColor=#666666;fontColor=#333333;fontStyle=1" parent="BaTGkpD-FC1v86nu7FEj-1" vertex="1">
                    <mxGeometry x="935" y="338" width="330" height="30" as="geometry"/>
                </mxCell>
                <mxCell id="BaTGkpD-FC1v86nu7FEj-33" value="" style="rounded=0;whiteSpace=wrap;html=1;shadow=1;fontSize=28;fillColor=#f5f5f5;strokeColor=#666666;fontColor=#333333;" parent="BaTGkpD-FC1v86nu7FEj-1" vertex="1">
                    <mxGeometry x="935" y="368" width="330" height="80" as="geometry"/>
                </mxCell>
                <mxCell id="BaTGkpD-FC1v86nu7FEj-34" value="Products Collection" style="rounded=0;whiteSpace=wrap;html=1;shadow=1;fontSize=21;" parent="BaTGkpD-FC1v86nu7FEj-1" vertex="1">
                    <mxGeometry x="963.75" y="380.5" width="272.5" height="55" as="geometry"/>
                </mxCell>
                <mxCell id="BaTGkpD-FC1v86nu7FEj-35" value="DB For Service C" style="rounded=0;whiteSpace=wrap;html=1;shadow=1;fontSize=20;fillColor=#f5f5f5;strokeColor=#666666;fontColor=#333333;fontStyle=1" parent="BaTGkpD-FC1v86nu7FEj-1" vertex="1">
                    <mxGeometry x="935" y="459" width="330" height="30" as="geometry"/>
                </mxCell>
                <mxCell id="BaTGkpD-FC1v86nu7FEj-36" value="" style="rounded=0;whiteSpace=wrap;html=1;shadow=1;fontSize=28;fillColor=#f5f5f5;strokeColor=#666666;fontColor=#333333;" parent="BaTGkpD-FC1v86nu7FEj-1" vertex="1">
                    <mxGeometry x="935" y="489" width="330" height="80" as="geometry"/>
                </mxCell>
                <mxCell id="BaTGkpD-FC1v86nu7FEj-37" value="Orders Collection" style="rounded=0;whiteSpace=wrap;html=1;shadow=1;fontSize=21;" parent="BaTGkpD-FC1v86nu7FEj-1" vertex="1">
                    <mxGeometry x="963.75" y="501.5" width="272.5" height="55" as="geometry"/>
                </mxCell>
                <mxCell id="BaTGkpD-FC1v86nu7FEj-38" value="Service D" style="rounded=0;whiteSpace=wrap;html=1;shadow=1;fontSize=20;fillColor=#f5f5f5;strokeColor=#666666;fontColor=#333333;fontStyle=1" parent="BaTGkpD-FC1v86nu7FEj-1" vertex="1">
                    <mxGeometry x="545.51" y="579" width="330" height="30" as="geometry"/>
                </mxCell>
                <mxCell id="BaTGkpD-FC1v86nu7FEj-39" value="" style="rounded=0;whiteSpace=wrap;html=1;shadow=1;fontSize=28;fillColor=#f5f5f5;strokeColor=#666666;fontColor=#333333;" parent="BaTGkpD-FC1v86nu7FEj-1" vertex="1">
                    <mxGeometry x="545.51" y="609" width="330" height="80" as="geometry"/>
                </mxCell>
                <mxCell id="BaTGkpD-FC1v86nu7FEj-40" value="Code to show products ordered by a particular user" style="rounded=0;whiteSpace=wrap;html=1;shadow=1;fontSize=21;fillColor=#f8cecc;strokeColor=#b85450;" parent="BaTGkpD-FC1v86nu7FEj-1" vertex="1">
                    <mxGeometry x="557.39" y="621.5" width="306.25" height="55" as="geometry"/>
                </mxCell>
                <mxCell id="XZ_k4_ahhGCxbSdOJ2sy-2" style="edgeStyle=orthogonalEdgeStyle;html=1;exitX=0.5;exitY=0;exitDx=0;exitDy=0;entryX=0.5;entryY=1;entryDx=0;entryDy=0;fontSize=24;" parent="BaTGkpD-FC1v86nu7FEj-1" source="XZ_k4_ahhGCxbSdOJ2sy-1" target="BaTGkpD-FC1v86nu7FEj-40" edge="1">
                    <mxGeometry relative="1" as="geometry"/>
                </mxCell>
                <mxCell id="XZ_k4_ahhGCxbSdOJ2sy-1" value="What if we want to extend the back-end with an additional feature?" style="rounded=0;whiteSpace=wrap;html=1;fontSize=24;fillColor=#FFFFFF;" parent="BaTGkpD-FC1v86nu7FEj-1" vertex="1">
                    <mxGeometry x="440" y="810" width="330" height="120" as="geometry"/>
                </mxCell>
            </root>
        </mxGraphModel>
    </diagram>
</mxfile>